<?xml version="1.0" encoding="UTF-8" standalone="no"?>
<!-- Uploaded to: SVG Repo, www.svgrepo.com, Generator: SVG Repo Mixer Tools -->

<svg
   width="800px"
   height="800px"
   viewBox="0 0 24 24"
   fill="none"
   version="1.1"
   id="svg1"
   sodipodi:docname="bookmark-svgrepo-com.svg"
   inkscape:version="1.3.2 (091e20e, 2023-11-25, custom)"
   xmlns:inkscape="http://www.inkscape.org/namespaces/inkscape"
   xmlns:sodipodi="http://sodipodi.sourceforge.net/DTD/sodipodi-0.dtd"
   xmlns="http://www.w3.org/2000/svg"
   xmlns:svg="http://www.w3.org/2000/svg">
  <defs
     id="defs1" />
  <sodipodi:namedview
     id="namedview1"
     pagecolor="#ffffff"
     bordercolor="#111111"
     borderopacity="1"
     inkscape:showpageshadow="0"
     inkscape:pageopacity="0"
     inkscape:pagecheckerboard="1"
     inkscape:deskcolor="#d1d1d1"
     inkscape:zoom="1.04625"
     inkscape:cx="399.04421"
     inkscape:cy="400"
     inkscape:window-width="1920"
     inkscape:window-height="1051"
     inkscape:window-x="-9"
     inkscape:window-y="-9"
     inkscape:window-maximized="1"
     inkscape:current-layer="svg1" />
  <path
     d="M5 6.2C5 5.07989 5 4.51984 5.21799 4.09202C5.40973 3.71569 5.71569 3.40973 6.09202 3.21799C6.51984 3 7.07989 3 8.2 3H15.8C16.9201 3 17.4802 3 17.908 3.21799C18.2843 3.40973 18.5903 3.71569 18.782 4.09202C19 4.51984 19 5.07989 19 6.2V21L12 16L5 21V6.2Z"
     stroke="#000000"
     stroke-width="2"
     stroke-linejoin="round"
     id="path1" />
  <path
     style="fill:#e8007c;stroke-width:0.955795;fill-opacity:1"
     d="m 157.06014,731.24063 c -8.41505,-2.63123 -16.7484,-10.08514 -20.66686,-18.48584 l -2.10415,-4.51106 -0.28591,-265.23298 c -0.28834,-267.49051 -0.11961,-283.70516 3.11009,-298.88331 7.38612,-34.71136 35.01881,-63.882192 68.57784,-72.395139 17.3367,-4.397816 22.23771,-4.497421 202.4331,-4.114134 187.09297,0.397958 175.2771,0.01253 193.5921,6.314793 29.86056,10.275123 54.41626,38.45339 61.17034,70.19448 3.22971,15.17815 3.39843,31.3928 3.11009,298.88331 l -0.28591,265.23298 -2.64195,5.37767 c -3.14526,6.40214 -10.49621,13.58017 -16.74421,16.35033 -6.46732,2.86739 -16.49422,3.32432 -23.14669,1.05477 -3.97191,-1.35504 -31.81949,-20.77105 -113.92693,-79.43266 C 449.48255,608.89226 400.31956,573.9546 400,573.9546 c -0.31956,0 -49.48255,34.93734 -109.25109,77.63853 -74.83472,53.46512 -110.15803,78.15575 -113.44903,79.29973 -5.61662,1.9524 -14.61351,2.10699 -20.23974,0.34777 z M 294.68361,568.31129 c 48.79045,-34.83394 90.72594,-64.24791 93.18997,-65.36438 6.80653,-3.0841 18.04817,-2.88033 25.02965,0.45368 2.89127,1.38073 46.11708,31.73865 96.05734,67.46204 l 90.80048,64.95163 0.27863,-231.88563 c 0.19084,-158.83719 -0.0405,-234.69354 -0.73436,-240.79911 -1.1497,-10.11655 -3.11537,-14.72929 -8.62432,-20.23824 -4.8962,-4.8962 -9.85002,-7.34211 -17.32781,-8.55547 -8.41882,-1.36605 -338.28756,-1.36605 -346.70637,0 -7.4778,1.21336 -12.43163,3.65927 -17.32782,8.55547 -5.29684,5.29683 -7.4064,10.03105 -8.55632,19.20184 -0.67374,5.37315 -1.00163,84.29996 -1.00163,241.10158 v 233.11343 l 3.10633,-2.3312 c 1.70849,-1.28215 43.02579,-30.83169 91.81623,-65.66564 z"
     id="path2"
     transform="scale(0.03)" />
</svg>
