<?xml version="1.0" encoding="UTF-8" standalone="no"?>
<!-- Uploaded to: SVG Repo, www.svgrepo.com, Generator: SVG Repo Mixer Tools -->

<svg
   width="800px"
   height="800px"
   viewBox="-1 0 22 22"
   version="1.1"
   id="svg1"
   sodipodi:docname="creator.svg"
   inkscape:version="1.3.2 (091e20e, 2023-11-25, custom)"
   xmlns:inkscape="http://www.inkscape.org/namespaces/inkscape"
   xmlns:sodipodi="http://sodipodi.sourceforge.net/DTD/sodipodi-0.dtd"
   xmlns="http://www.w3.org/2000/svg"
   xmlns:svg="http://www.w3.org/2000/svg">
  <sodipodi:namedview
     id="namedview1"
     pagecolor="#ffffff"
     bordercolor="#111111"
     borderopacity="1"
     inkscape:showpageshadow="0"
     inkscape:pageopacity="0"
     inkscape:pagecheckerboard="1"
     inkscape:deskcolor="#d1d1d1"
     inkscape:zoom="1.04625"
     inkscape:cx="400"
     inkscape:cy="400"
     inkscape:window-width="1920"
     inkscape:window-height="1051"
     inkscape:window-x="-9"
     inkscape:window-y="-9"
     inkscape:window-maximized="1"
     inkscape:current-layer="svg1" />
  <title
     id="title1">profile_plus [#1337]</title>
  <desc
     id="desc1">Created with Sketch.</desc>
  <defs
     id="defs1" />
  <g
     id="Page-1"
     stroke="none"
     stroke-width="1"
     fill="none"
     fill-rule="evenodd"
     style="fill:#e8007c;fill-opacity:1">
    <g
       id="Dribbble-Light-Preview"
       transform="translate(-340.000000, -2159.000000)"
       fill="#000000"
       style="fill:#e8007c;fill-opacity:1">
      <g
         id="icons"
         transform="translate(56.000000, 160.000000)"
         style="fill:#e8007c;fill-opacity:1">
        <path
           d="M298,2005 C298,2002.794 296.206,2001 294,2001 C291.794,2001 290,2002.794 290,2005 C290,2007.206 291.794,2009 294,2009 C296.206,2009 298,2007.206 298,2005 L298,2005 Z M304,2019 L299,2019 L299,2017 L301.784,2017 C300.958,2013.214 297.785,2011 294,2011 C290.215,2011 287.042,2013.214 286.216,2017 L289,2017 L289,2019 L284,2019 C284,2014.445 286.583,2011.048 290.242,2009.673 C288.876,2008.574 288,2006.89 288,2005 C288,2001.686 290.686,1999 294,1999 C297.314,1999 300,2001.686 300,2005 C300,2006.89 299.124,2008.574 297.758,2009.673 C301.417,2011.048 304,2014.445 304,2019 L304,2019 Z M295,2017 L297,2017 L297,2019 L295,2019 L295,2021 L293,2021 L293,2019 L291,2019 L291,2017 L293,2017 L293,2015 L295,2015 L295,2017 Z"
           id="profile_plus-[#1337]"
           style="fill:#e8007c;fill-opacity:1" />
      </g>
    </g>
  </g>
</svg>
