<?xml version="1.0" encoding="UTF-8"?>
<svg width="44px" height="37px" viewBox="0 0 44 37" version="1.1" xmlns="http://www.w3.org/2000/svg" xmlns:xlink="http://www.w3.org/1999/xlink">
    <!-- Generator: Sketch 50.2 (55047) - http://www.bohemiancoding.com/sketch -->
    <title>icon-burger</title>
    <desc>Created with Sketch.</desc>
    <defs></defs>
    <g id="Page-1" stroke="none" stroke-width="1" fill="none" fill-rule="evenodd">
        <g id="Artboard-4" transform="translate(-84.000000, -248.000000)" fill="#FD0B7D">
            <g id="icon-burger" transform="translate(84.000000, 248.000000)">
                <path d="M43.333333,20 C43.333333,21.840997 41.841,23.333334 40,23.333334 L3.333333,23.333334 C1.492333,23.333334 0,21.840997 0,20 C0,18.159004 1.492333,16.666667 3.333333,16.666667 L40,16.666667 C41.841,16.666667 43.333333,18.159 43.333333,20 Z M8.333333,26.666667 L3.333333,26.666667 C3.333333,32.189667 7.810333,36.666667 13.333333,36.666667 L30,36.666667 C35.523,36.666667 40,32.189667 40,26.666667 L8.333333,26.666667 Z M6.666667,13.333334 L3.333333,13.333334 L3.333333,6.666667 C3.333333,2.984667 6.318,0 10,0 L33.333333,0 C37.015333,0 40,2.984667 40,6.666667 L40,13.333334 L6.666667,13.333334 Z M33.333333,8.333334 C33.333333,9.253667 34.079667,10 35,10 C35.920333,10 36.666667,9.253667 36.666667,8.333334 C36.666667,7.413 35.920333,6.666667 35,6.666667 C34.079667,6.666667 33.333333,7.413 33.333333,8.333334 Z M26.666667,5 C26.666667,5.920334 27.413,6.666667 28.333333,6.666667 C29.253667,6.666667 30,5.920334 30,5 C30,4.079667 29.253667,3.333334 28.333333,3.333334 C27.413,3.333334 26.666667,4.079667 26.666667,5 Z M20,8.333334 C20,9.253667 20.746333,10 21.666667,10 C22.587,10 23.333333,9.253667 23.333333,8.333334 C23.333333,7.413 22.587,6.666667 21.666667,6.666667 C20.746333,6.666667 20,7.413 20,8.333334 Z M13.333333,5 C13.333333,5.920334 14.079667,6.666667 15,6.666667 C15.920333,6.666667 16.666667,5.920334 16.666667,5 C16.666667,4.079667 15.920333,3.333334 15,3.333334 C14.079667,3.333334 13.333333,4.079667 13.333333,5 Z M6.666667,8.333334 C6.666667,9.253667 7.413,10 8.333333,10 C9.253667,10 10,9.253667 10,8.333334 C10,7.413 9.253667,6.666667 8.333333,6.666667 C7.413,6.666667 6.666667,7.413 6.666667,8.333334 Z" id="Page-1"></path>
            </g>
        </g>
    </g>
</svg>