<?xml version="1.0" encoding="UTF-8"?>
<svg width="39px" height="37px" viewBox="0 0 39 37" version="1.1" xmlns="http://www.w3.org/2000/svg" xmlns:xlink="http://www.w3.org/1999/xlink">
    <!-- Generator: Sketch 50.2 (55047) - http://www.bohemiancoding.com/sketch -->
    <title>icon-silverware</title>
    <desc>Created with Sketch.</desc>
    <defs></defs>
    <g id="Page-1" stroke="none" stroke-width="1" fill="none" fill-rule="evenodd">
        <g id="Artboard-4" transform="translate(-161.000000, -246.000000)" fill="#FD0B7D">
            <g id="icon-silverware" transform="translate(161.000000, 246.000000)">
                <path d="M10.71,20.4168728 L16.37,14.7568728 L2.34,0.726872795 C-0.78,3.8468728 -0.78,8.9168728 2.34,12.0368728 L10.71,20.4168728 Z M24.28,16.7868728 C27.33,18.2168728 31.64,17.2068728 34.82,14.0268728 C38.65,10.1968728 39.38,4.7268728 36.45,1.7968728 C33.51,-1.1331272 28.03,-0.403127205 24.21,3.4268728 C21.03,6.6068728 20.03,10.9168728 21.45,13.9668728 C17,18.4068728 1.92,33.4868748 1.92,33.4868748 L4.75,36.3168768 L18.51,22.5568728 L32.27,36.3168728 L35.1,33.4868748 L21.34,19.7268728 L24.28,16.7868728 Z" id="Page-1"></path>
            </g>
        </g>
    </g>
</svg>